<?xml version="1.0" encoding="UTF-8" standalone="no"?>
<svg
   version="1.0"
   width="564.000000pt"
   height="564.000000pt"
   viewBox="0 0 564.000000 564.000000"
   preserveAspectRatio="xMidYMid meet"
   id="svg6"
   sodipodi:docname="App Logo (Restaurant) (Colored).svg"
   inkscape:version="1.3.1 (9b9bdc1480, 2023-11-25, custom)"
   xmlns:inkscape="http://www.inkscape.org/namespaces/inkscape"
   xmlns:sodipodi="http://sodipodi.sourceforge.net/DTD/sodipodi-0.dtd"
   xmlns="http://www.w3.org/2000/svg"
   xmlns:svg="http://www.w3.org/2000/svg">
  <defs
     id="defs6" />
  <sodipodi:namedview
     id="namedview6"
     pagecolor="#ffffff"
     bordercolor="#666666"
     borderopacity="1.0"
     inkscape:showpageshadow="2"
     inkscape:pageopacity="0.0"
     inkscape:pagecheckerboard="0"
     inkscape:deskcolor="#d1d1d1"
     inkscape:document-units="pt"
     inkscape:zoom="0.76728608"
     inkscape:cx="380.5621"
     inkscape:cy="454.8499"
     inkscape:window-width="1850"
     inkscape:window-height="1016"
     inkscape:window-x="70"
     inkscape:window-y="27"
     inkscape:window-maximized="1"
     inkscape:current-layer="g6" />
  <g
     transform="translate(0.000000,564.000000) scale(0.100000,-0.100000)"
     fill="#000000"
     stroke="none"
     id="g6">
    <path
       d="M2635 5389 c-150 -39 -189 -58 -279 -137 -78 -67 -186 -199 -186 -226 0 -4 -11 -21 -25 -38 -14 -16 -25 -36 -25 -44 0 -10 -14 -14 -53 -14 -73 0 -230 -51 -303 -98 -195 -126 -292 -385 -239 -637 8 -38 15 -73 15 -77 0 -4 -24 -23 -52 -43 -117 -78 -167 -120 -248 -204 -125 -129 -246 -281 -302 -381 -14 -25 -44 -77 -67 -117 -105 -184 -192 -426 -231 -643 -68 -381 -38 -766 90 -1134 22 -66 29 -105 33 -206 7 -164 59 -393 117 -517 11 -24 20 -45 20 -49 0 -18 73 -153 129 -239 177 -271 417 -397 669 -351 120 21 277 109 367 205 132 139 209 259 300 466 26 61 50 112 52 114 2 3 20 -15 41 -39 87 -103 178 -178 279 -231 65 -34 138 -40 147 -12 4 10 32 52 64 93 52 67 62 75 96 78 45 4 81 -24 91 -69 6 -27 49 -79 66 -79 13 0 76 66 93 97 8 15 28 56 45 89 33 70 40 76 96 84 l40 5 0 65 c0 43 6 74 17 90 16 25 16 28 -6 165 -6 39 -5 41 40 73 42 31 51 33 93 27 93 -14 192 -61 264 -126 57 -51 75 -76 111 -153 75 -158 106 -226 106 -232 0 -3 15 -38 34 -77 18 -40 36 -88 40 -108 14 -79 47 -70 160 44 87 87 136 143 175 198 13 19 31 41 38 49 19 20 103 153 103 162 0 4 15 31 34 60 65 102 169 372 207 538 71 309 78 671 17 955 -57 268 -201 610 -352 832 -14 21 -26 43 -26 49 0 6 22 21 50 34 76 36 196 159 252 260 62 111 82 198 76 334 -9 196 -97 359 -253 471 -100 71 -200 106 -321 112 l-102 6 -42 84 c-53 104 -146 192 -266 252 -180 90 -323 92 -532 8 l-113 -45 -63 63 c-119 118 -235 166 -421 171 -66 2 -138 -1 -160 -7z m247 -130 c136 -29 271 -129 319 -237 l29 -63 29 15 c16 9 42 26 57 39 37 30 122 73 199 100 72 25 186 28 260 7 71 -19 180 -87 229 -141 41 -46 119 -192 171 -321 29 -73 68 -123 86 -112 8 5 10 35 6 95 -5 79 -4 89 11 90 133 8 259 -44 368 -150 142 -137 177 -397 74 -546 -54 -78 -173 -165 -226 -165 -21 0 -105 42 -163 82 -276 189 -490 302 -676 356 -189 56 -280 65 -610 66 -276 1 -326 -1 -455 -22 -305 -48 -531 -143 -708 -296 -63 -54 -93 -64 -126 -43 -30 20 -72 101 -91 175 -24 91 -21 242 6 316 40 108 99 181 189 230 107 58 203 65 304 22 21 -9 41 -14 45 -11 4 2 13 30 20 62 36 159 168 339 297 403 107 53 246 72 356 49z m508 -937 c306 -80 582 -223 745 -387 54 -54 105 -144 105 -185 0 -36 -45 -217 -82 -327 -27 -82 -33 -92 -42 -75 -23 41 -211 168 -276 187 -3 1 -25 10 -50 22 -77 35 -98 42 -180 63 -190 48 -467 75 -668 64 -176 -9 -420 -53 -557 -99 -102 -34 -305 -108 -351 -127 -53 -21 -83 -20 -116 6 -17 12 -17 19 3 117 12 57 25 129 30 159 5 30 23 98 40 152 42 131 54 142 281 262 136 72 413 155 638 191 139 23 339 13 480 -23z m-57 -788 c204 -27 412 -95 522 -168 101 -67 161 -130 174 -183 7 -25 10 -48 7 -51 -3 -3 -25 13 -50 36 -57 52 -87 67 -166 80 -79 14 -157 4 -223 -28 -68 -32 -80 -58 -20 -41 22 6 60 3 124 -9 56 -11 112 -16 141 -13 51 6 75 -4 132 -56 16 -14 25 -19 21 -11 -5 10 -5 12 2 5 35 -34 54 -207 54 -490 0 -255 -14 -343 -77 -490 -42 -101 -71 -147 -156 -252 -72 -89 -137 -146 -322 -284 -40 -29 -171 -79 -242 -91 -85 -14 -180 -1 -235 31 -35 20 -36 24 -42 90 -10 124 -79 223 -211 306 -89 55 -187 80 -286 72 l-65 -5 -17 41 c-9 23 -20 60 -24 82 -4 22 -36 123 -70 225 -59 171 -67 188 -106 224 -24 21 -66 50 -95 63 -28 13 -53 30 -56 37 -7 17 45 300 68 376 66 214 110 333 129 345 57 37 300 117 458 151 163 35 411 39 631 8z m-1613 -17 c0 -7 12 -46 26 -87 22 -62 26 -90 24 -165 -2 -103 15 -270 36 -364 17 -71 14 -91 -15 -91 -10 0 -60 -11 -110 -24 -103 -27 -185 -72 -243 -134 -22 -24 -41 -42 -42 -40 -1 2 -16 39 -33 83 -43 107 -95 341 -96 435 -2 65 2 84 29 141 18 37 49 86 70 109 44 48 130 109 189 133 50 20 165 23 165 4z m154 -860 c22 -12 41 -26 43 -32 1 -5 -41 -27 -95 -48 -180 -70 -230 -120 -219 -220 8 -79 15 -84 47 -35 60 90 73 99 208 142 85 27 171 33 215 17 16 -6 29 -23 37 -46 7 -20 10 -38 8 -39 -1 -2 -37 -20 -78 -41 -128 -64 -170 -95 -170 -125 0 -15 3 -29 6 -32 3 -4 47 11 98 31 51 21 116 44 145 51 63 15 68 12 99 -72 l21 -57 -32 -23 c-18 -14 -62 -44 -99 -67 -61 -40 -67 -46 -61 -70 13 -56 45 -102 99 -142 l56 -41 82 23 c65 19 105 24 201 24 109 0 125 -2 177 -27 74 -34 152 -113 185 -184 21 -47 24 -64 19 -107 -14 -104 -78 -196 -155 -222 -56 -19 -161 -19 -206 -1 l-34 15 6 86 6 86 -56 54 c-36 33 -90 69 -147 97 -49 25 -90 43 -90 42 0 -23 81 -158 119 -199 78 -86 90 -153 33 -193 -41 -30 -204 -82 -254 -82 -78 0 -129 25 -202 98 -157 159 -279 383 -402 742 -91 263 -88 330 21 463 104 128 273 189 369 134z m-557 -579 c5 -7 22 -47 38 -88 16 -41 40 -102 55 -135 15 -33 31 -71 35 -85 4 -14 25 -60 47 -103 l39 -78 -43 -51 c-69 -82 -124 -167 -168 -258 -56 -117 -69 -159 -86 -280 -16 -125 -18 -177 -4 -185 6 -4 10 6 11 22 0 37 25 95 72 168 21 33 53 84 70 114 22 37 58 75 112 118 138 109 169 132 177 127 5 -3 23 -29 42 -58 50 -78 135 -159 202 -192 55 -27 67 -29 174 -29 105 0 119 2 165 27 27 15 51 25 53 23 4 -3 -38 -112 -74 -193 -13 -29 -24 -54 -24 -56 0 -14 -101 -179 -143 -234 -62 -82 -116 -133 -182 -173 -27 -17 -64 -39 -80 -49 -17 -11 -64 -27 -105 -35 -168 -36 -335 18 -463 150 -60 61 -154 202 -178 266 -11 28 -32 76 -48 107 -32 63 -79 221 -106 352 -14 67 -16 117 -12 240 4 139 7 164 34 240 73 206 202 340 329 340 30 0 56 -5 61 -12z m2047 -770 c22 -108 13 -132 -75 -223 -53 -54 -69 -77 -69 -100 l-1 -30 -18 23 c-11 12 -28 22 -38 22 -11 0 -34 16 -51 36 -31 35 -34 36 -87 32 -41 -3 -67 -13 -98 -35 -50 -36 -110 -128 -101 -156 5 -16 2 -18 -18 -12 -51 16 -118 59 -166 108 -68 69 -152 168 -152 179 0 4 30 8 68 8 88 0 218 15 306 36 151 35 373 94 426 113 69 25 69 25 74 -1z"
       id="path1"
       style="fill:#531914;fill-opacity:1" />
    <path
       d="M2793 3420 c-23 -5 -52 -14 -65 -21 -46 -24 -117 -91 -141 -132 -24 -42 -54 -144 -44 -153 3 -3 15 16 28 41 27 53 89 110 167 150 48 25 60 27 136 23 96 -5 165 -33 238 -98 l45 -39 7 46 c9 66 8 87 -6 106 -15 19 -198 73 -273 80 -27 3 -69 2 -92 -3z"
       id="path2"
       style="fill:#531914;fill-opacity:1" />
    <path
       d="M3434 3179 c-4 -7 -9 -53 -12 -103 -4 -74 0 -106 18 -171 12 -44 30 -89 40 -100 10 -11 33 -51 52 -90 20 -38 56 -101 82 -140 25 -38 46 -75 46 -81 0 -31 -101 -80 -190 -92 -86 -12 -199 2 -270 34 -67 30 -113 76 -142 141 -21 49 -8 51 -155 -25 -161 -82 -239 -105 -359 -106 l-102 -1 48 -55 c51 -60 96 -118 196 -252 54 -72 85 -102 172 -164 59 -42 140 -103 180 -135 40 -33 83 -61 95 -64 186 -47 238 -47 307 -1 39 25 170 182 224 266 16 25 35 52 43 60 7 8 30 36 49 61 31 41 42 49 97 62 34 8 81 18 104 22 54 8 63 21 22 30 l-31 7 35 37 c20 21 37 49 39 68 l4 32 -48 -6 c-40 -5 -54 -2 -87 20 -50 33 -173 157 -210 210 -32 49 -55 108 -44 118 5 4 51 19 103 34 112 32 138 44 208 96 34 26 52 47 52 60 0 16 -5 20 -17 16 -10 -3 -90 -28 -178 -56 -88 -28 -178 -52 -199 -53 -39 -3 -39 -2 -76 65 -23 43 -45 105 -60 167 -12 55 -24 100 -26 100 -1 0 -6 -5 -10 -11z m-603 -1013 c118 -44 253 -60 449 -52 96 3 211 13 255 21 44 8 83 15 87 15 15 0 -140 -138 -195 -174 -141 -93 -242 -93 -383 0 -28 19 -54 34 -57 34 -8 0 -88 51 -110 70 -53 46 -119 110 -115 110 3 0 34 -11 69 -24z"
       id="path3"
       style="fill:#531914;fill-opacity:1" />
    <path
       d="M2770 2989 c-78 -36 -146 -86 -173 -128 -27 -40 -34 -61 -20 -61 11 0 103 62 103 70 0 15 58 31 112 31 56 0 122 -13 198 -41 l45 -16 2 58 c1 37 -2 56 -8 52 -6 -3 -20 3 -32 14 -50 47 -150 56 -227 21z"
       id="path4"
       style="fill:#531914;fill-opacity:1" />
    <path
       d="m 3092,701 c -23,-52 -9,-112 28,-116 53,-7 90,23 90,73 0,46 -12,59 -62,64 -40,5 -45,3 -56,-21 z"
       id="path5"
       style="fill:#531914;fill-opacity:1" />
    <path
       style="fill:#ffffff;stroke-width:12.551;stroke-linecap:round;stroke-linejoin:bevel"
       d="m 597.18053,235.28082 c -4.20437,-1.29109 -13.80819,-6.79267 -27.31486,-15.64741 -41.88151,-27.4568 -66.65992,-39.21894 -97.42129,-46.24521 -17.62114,-4.02488 -31.03858,-4.79802 -77.22022,-4.44956 -33.20942,0.25059 -36.89538,0.38907 -45.08205,1.69377 -44.52806,7.09638 -71.09135,17.68019 -97.62873,38.89889 -4.12167,3.2956 -8.49096,6.50083 -9.70952,7.12273 -3.02865,1.54571 -6.20645,1.52464 -8.37123,-0.0555 -4.15292,-3.03132 -9.64265,-13.59179 -12.23067,-23.52788 -2.4382,-9.36089 -2.67546,-25.26114 -0.53754,-36.02364 1.66753,-8.39449 7.51432,-19.47813 13.87907,-26.31028 5.99221,-6.43225 17.35953,-12.97049 26.15481,-15.04369 8.03619,-1.89427 18.68029,-1.02387 26.03568,2.12902 1.62401,0.69614 3.85263,1.46334 4.95249,1.70492 2.37434,0.52149 2.40915,0.45466 5.40547,-10.37606 2.4848,-8.98173 8.95396,-22.0945 14.62774,-29.649954 5.58807,-7.441314 15.34173,-16.756052 20.93794,-19.995713 8.94378,-5.177581 18.90196,-8.18151 30.9173,-9.326343 17.1708,-1.636049 33.53394,3.350388 47.18257,14.378224 7.0633,5.70701 11.41287,11.218608 15.51351,19.658051 l 3.3988,6.994985 3.61864,-2.029679 c 1.99025,-1.116325 5.51362,-3.442138 7.82972,-5.168475 5.00137,-3.727843 14.37642,-8.68512 22.50902,-11.902174 14.3759,-5.686743 31.78811,-5.773861 44.62653,-0.223278 13.64387,5.898813 24.03182,14.534675 30.41753,25.287134 4.55181,7.664502 12.0829,22.794642 16.71651,33.583902 4.7891,11.1513 9.55182,17.11773 12.0255,15.06476 0.68711,-0.57025 0.84474,-3.16874 0.72135,-11.89141 -0.0869,-6.13893 0.0849,-11.55461 0.38173,-12.03485 0.7433,-1.20268 11.46591,-0.47486 18.13583,1.23102 18.71422,4.78629 35.9726,18.913 43.56652,35.66103 3.84025,8.46949 5.29174,15.66965 5.36344,26.60552 0.0735,11.21211 -1.09378,16.65889 -5.27566,24.61701 -4.17917,7.95298 -15.54541,18.64254 -24.62271,23.15681 -4.53803,2.25683 -7.14673,2.83695 -9.50322,2.11331 z"
       id="path7"
       transform="matrix(7.5,0,0,-7.5,0,5640)" />
    <path
       style="fill:#ffffff;stroke-width:12.551;stroke-linecap:round;stroke-linejoin:bevel"
       d="m 545.33849,301.72213 c -5.15418,-4.91982 -19.61779,-14.79817 -27.045,-18.47119 -6.54658,-3.23751 -20.61667,-9.27713 -25.24314,-10.83568 -24.37468,-8.21124 -71.27393,-13.71611 -100.66257,-11.81541 -39.26535,2.53945 -65.40611,8.8061 -113.75006,27.26897 -9.56044,3.65119 -12.11943,4.37897 -15.42289,4.38629 -3.34182,0.007 -4.33447,-0.2764 -6.35356,-1.81643 -1.81067,-1.38107 -2.39295,-2.29681 -2.39295,-3.76332 0,-3.60248 7.13947,-39.31678 9.49982,-47.52165 4.28992,-14.91231 5.74272,-17.97675 10.96675,-23.13259 4.68312,-4.62199 8.57329,-7.14552 22.96698,-14.89853 10.3559,-5.5781 19.66715,-9.52586 32.53287,-13.79323 18.199,-6.03634 38.48204,-11.14285 57.29548,-14.42485 8.25423,-1.43995 34.98582,-1.63391 45.28949,-0.32861 29.37847,3.72174 67.84033,18.45324 94.81471,36.31553 18.02385,11.9353 28.82136,22.89437 34.65059,35.1691 2.94534,6.20204 3.01063,8.49967 0.54525,19.18736 -3.39419,14.7142 -10.37964,38.20459 -12.45251,41.87474 -0.48702,0.86232 -1.38178,0.28157 -5.23926,-3.4005 z"
       id="path8"
       transform="matrix(7.5,0,0,-7.5,0,5640)" />
    <path
       style="fill:#ffffff;stroke-width:12.551;stroke-linecap:round;stroke-linejoin:bevel"
       d="m 202.26768,699.50675 c -15.20097,-2.75202 -30.07341,-11.7449 -40.89165,-24.72584 -6.65673,-7.9875 -14.6334,-20.15571 -18.36859,-28.02084 -10.58329,-22.28506 -13.93162,-31.24821 -18.76,-50.2187 -4.83998,-19.01608 -4.99504,-20.25205 -4.86855,-38.8068 0.14203,-20.83507 0.90157,-28.07668 3.88456,-37.03651 8.99916,-27.0302 25.92127,-45.75989 42.29294,-46.81056 2.60962,-0.16747 5.79556,-0.10737 7.07987,0.13357 2.78743,0.52292 3.10894,1.08002 8.68952,15.05678 2.15015,5.38515 5.55787,13.65159 7.57271,18.36987 2.01483,4.71828 3.66241,8.81625 3.66128,9.1066 -10e-4,0.29035 2.53107,5.70334 5.62708,12.02885 l 5.6291,11.50094 -4.55579,5.44189 c -17.53393,20.94425 -30.1431,45.20792 -33.64458,64.74181 -2.76838,15.44413 -3.73509,30.39092 -2.10937,32.61423 0.89215,1.22008 0.93945,1.20899 1.55273,-0.36419 0.3479,-0.89244 0.95776,-3.37109 1.35524,-5.50813 0.39748,-2.13703 1.83143,-6.09579 3.18655,-8.79724 3.9805,-7.93515 17.14408,-28.64415 20.6365,-32.4654 4.53751,-4.96477 30.51846,-25.55558 32.24535,-25.55558 0.25282,0 2.49463,2.99457 4.98179,6.65459 8.6564,12.73847 21.09306,24.00397 31.56548,28.59296 3.46744,1.51943 4.10385,1.57053 19.55861,1.57053 H 294.563 l 6.34438,-3.06725 c 3.48941,-1.68698 6.34438,-2.80412 6.34438,-2.48251 0,2.80366 -13.34417,34.13783 -17.62677,41.39037 -12.2692,20.77773 -22.47974,33.589 -32.86151,41.23162 -6.6638,4.90561 -18.70147,11.73184 -23.14788,13.12653 -10.18961,3.19613 -21.71975,4.04152 -31.34792,2.29841 z"
       id="path9"
       transform="matrix(7.5,0,0,-7.5,0,5640)" />
    <path
       style="fill:#fbe6ad;fill-opacity:1;stroke-width:12.551;stroke-linecap:round;stroke-linejoin:bevel"
       d="m 412.99947,552.95553 c -5.56382,-1.26373 -11.65608,-4.10375 -13.49744,-6.29208 -1.16189,-1.38083 -1.6417,-2.97158 -1.98412,-6.57817 -1.82585,-19.231 -10.41055,-32.2915 -28.63647,-43.56667 -11.96673,-7.40302 -21.53693,-9.89934 -36.82476,-9.60549 l -10.05821,0.19333 -1.54635,-3.84136 c -0.85049,-2.11274 -2.56177,-7.68433 -3.80285,-12.3813 -3.21627,-12.17228 -14.21822,-44.71 -17.24373,-50.99746 -3.61231,-7.5069 -7.20325,-10.542 -22.94412,-19.39263 -2.9651,-1.6672 -3.09532,-1.86189 -3.09532,-4.62785 0,-5.68154 5.64958,-35.91619 8.8606,-47.41894 4.67765,-16.75663 14.48249,-43.63898 16.73983,-45.89632 4.51362,-4.51362 51.53942,-19.20883 70.21623,-21.94205 52.2665,-7.64884 117.7396,3.60685 148.49594,25.52841 12.15174,8.66113 18.96405,17.21904 20.03171,25.16468 0.50674,3.77121 0.81691,3.88231 -6.46242,-2.31483 -2.95268,-2.51371 -7.11689,-5.46235 -9.25378,-6.55252 -8.31235,-4.24067 -23.36927,-5.65632 -33.25888,-3.12698 -8.28657,2.11935 -17.26842,6.7848 -17.26842,8.96976 0,0.81089 0.5694,0.8787 3.42115,0.40746 4.95388,-0.81861 10.15726,-0.53568 19.38651,1.05415 4.91198,0.84613 11.52269,1.45747 16.65263,1.53999 9.55789,0.15374 11.08644,0.70432 17.39906,6.26713 1.70414,1.50172 3.6102,2.79925 4.23571,2.88339 1.65422,0.22254 3.84504,7.28086 5.00288,16.11814 2.53668,19.36136 2.95874,66.62009 0.73983,82.83889 -1.67357,12.23265 -5.2002,23.31805 -12.15236,38.19899 -6.60745,14.1431 -21.55254,32.57886 -36.73607,45.31637 -8.00758,6.7176 -22.25381,17.63639 -25.76911,19.7503 -3.65345,2.19701 -16.37111,7.20507 -22.94597,9.03583 -7.57177,2.10837 -21.2458,2.73419 -27.7017,1.26783 z m 42.65392,-35.48575 c 6.64877,-3.57906 21.72604,-20.46413 32.24067,-36.10634 6.91196,-10.28269 16.57312,-21.80626 19.5591,-23.3296 1.47211,-0.75102 7.77777,-2.46708 14.01256,-3.81347 6.2348,-1.3464 11.64435,-2.75634 12.02122,-3.13322 1.10747,-1.10746 0.10801,-1.91893 -3.40002,-2.7605 l -3.29052,-0.78938 3.64276,-3.81906 c 3.76544,-3.94767 5.77482,-7.65302 6.38862,-11.7808 l 0.35474,-2.38561 -7.28064,0.10484 -7.28064,0.10484 -3.38651,-2.28129 c -4.89579,-3.298 -15.11514,-12.91621 -22.13284,-20.83091 -6.71016,-7.56784 -11.95038,-16.58675 -11.95038,-20.5677 v -2.22152 l 8.63433,-2.66252 c 14.58757,-4.4983 20.21677,-6.51934 23.94804,-8.59803 4.94289,-2.75368 12.74795,-8.70464 14.32917,-10.92526 1.37808,-1.93533 1.74351,-4.8785 0.68681,-5.53157 -0.34297,-0.21196 -8.1062,1.96748 -17.25163,4.84321 -19.77284,6.21745 -33.03703,9.79658 -36.31654,9.79943 -2.95575,0.003 -4.7807,-1.98284 -8.32858,-9.06084 -3.4944,-6.97131 -5.64654,-13.19783 -8.55461,-24.75 -1.38838,-5.51528 -2.70323,-10.20668 -2.92189,-10.42533 -0.86841,-0.86842 -2.1836,2.23411 -2.68869,6.34259 -0.29317,2.38469 -0.52557,8.73442 -0.51645,14.11051 0.0138,8.12476 0.26961,10.70969 1.51556,15.31372 1.96707,7.26868 4.41101,13.36537 6.70735,16.73227 1.02102,1.49702 3.95404,6.62874 6.51782,11.40383 2.56379,4.77509 6.7732,12.05425 9.35426,16.17592 7.6367,12.19501 7.86695,12.69268 6.69119,14.46215 -2.50856,3.77526 -14.66474,8.92075 -24.21255,10.24873 -6.87782,0.95662 -12.54124,0.87827 -20.2765,-0.2805 -17.27295,-2.58755 -27.25133,-8.93187 -33.59124,-21.35753 -1.64322,-3.22058 -3.42753,-5.85487 -4.1154,-6.07581 -0.792,-0.2544 -6.57159,2.22875 -16.61701,7.13934 -16.93088,8.27649 -21.45083,10.20646 -28.36493,12.1115 -6.94775,1.91432 -13.76379,2.6499 -24.55457,2.6499 -5.35016,0 -9.72756,0.19466 -9.72756,0.43258 0,0.23791 1.70359,2.36391 3.78576,4.72444 5.29436,6.00215 12.53019,15.11172 24.45629,30.78929 5.63342,7.40546 12.0726,15.17636 14.3093,17.26866 2.23671,2.09229 9.04614,7.46034 15.13209,11.92898 6.08595,4.46864 14.43764,10.75327 18.55931,13.96585 11.85672,9.24157 14.07472,10.48769 22.01386,12.36788 11.39594,2.69886 13.16553,2.93791 20.66904,2.79209 6.76323,-0.13143 7.39756,-0.26281 11.22985,-2.32576 z M 350.01397,375.29039 c 2.82363,-1.82423 6.05,-4.2928 7.1697,-5.48573 2.54696,-2.71352 5.43072,-3.58902 13.27789,-4.03109 7.56584,-0.42622 14.62273,0.78016 25.79716,4.41005 4.33227,1.40729 8.0807,2.55871 8.32985,2.55871 0.24914,0 0.37007,-3.27839 0.26873,-7.28532 l -0.18425,-7.28531 -1.74419,-0.4653 c -0.95931,-0.25592 -2.90146,-1.39532 -4.3159,-2.53199 -7.12733,-5.72768 -21.21637,-6.1422 -31.58349,-0.92924 -10.33857,5.19859 -18.90262,12.26941 -22.49953,18.57648 -3.87592,6.79631 -2.30738,7.50242 5.48403,2.46874 z m -7.29716,-43.32985 c 3.54162,-6.24387 11.57882,-14.038 18.95631,-18.38302 8.17389,-4.81407 11.34585,-5.6289 19.85073,-5.09931 14.41987,0.89792 22.14314,3.91432 32.79652,12.80899 3.51399,2.93389 6.50269,5.22072 6.64157,5.08185 0.13888,-0.13888 0.56054,-2.15115 0.93703,-4.47172 0.92386,-5.69429 0.84731,-13.73872 -0.14311,-15.03907 -3.13399,-4.11475 -30.30965,-11.66198 -41.99184,-11.66198 -6.44352,0 -13.38348,1.77296 -18.21654,4.6538 -2.01936,1.20367 -6.36586,4.82767 -9.65891,8.05333 -6.69685,6.55983 -8.81257,10.20147 -11.68442,20.11162 -2.91222,10.04944 -1.87416,11.67944 2.51266,3.94551 z"
       id="path10"
       transform="matrix(7.5,0,0,-7.5,0,5640)" />
    <path
       style="fill:#fbe6ad;fill-opacity:1;stroke-width:8.87492;stroke-linecap:round;stroke-linejoin:bevel"
       d="m 273.93627,588.87292 c -8.23328,-0.98454 -14.56857,-4.82103 -23.81676,-14.42283 -20.20483,-20.97737 -36.26818,-51.04677 -52.22896,-97.76872 -6.16252,-18.03953 -8.28222,-26.97017 -8.27099,-34.84711 0.0133,-9.33392 2.37162,-14.94367 10.6644,-25.36748 10.03293,-12.61113 25.43525,-21.13853 38.11581,-21.10257 4.85514,0.0138 7.28207,0.54251 10.8784,2.37003 3.20462,1.62847 6.33349,3.98495 6.0024,4.52066 -0.36913,0.59726 -7.31139,3.85964 -14.65845,6.88847 -21.07404,8.68776 -27.05428,14.32827 -27.04511,25.50872 0.004,5.06967 0.70677,9.83107 1.66838,11.30618 0.63542,0.97472 0.78763,1.01162 1.69307,0.41044 0.54718,-0.36332 2.48687,-2.81513 4.31043,-5.44847 6.58365,-9.50724 9.76062,-11.73457 22.85337,-16.02211 10.48761,-3.43443 15.39389,-4.35727 23.38303,-4.39821 6.24169,-0.032 6.83299,0.0416 8.9853,1.11773 1.98623,0.99311 2.50994,1.56495 3.79799,4.14706 0.82174,1.6473 1.61897,3.83353 1.77162,4.85828 l 0.27755,1.8632 -10.2898,5.27896 c -15.40688,7.90418 -21.08955,11.74873 -22.53928,15.24869 -0.62139,1.50016 -0.22924,5.14185 0.63052,5.85539 0.65543,0.54396 6.44046,-1.25998 15.98375,-4.98419 14.02047,-5.4714 21.63952,-7.36829 24.16551,-6.01642 0.59981,0.321 1.61134,1.54402 2.24784,2.71781 1.04724,1.93123 5.94342,14.44774 5.70903,14.59445 -0.0538,0.0337 -1.71517,1.24456 -3.69187,2.69082 -1.97669,1.44627 -7.18315,4.99222 -11.56989,7.87989 -8.1571,5.3696 -10.40964,7.35511 -10.40964,9.17562 0,1.7647 1.39885,5.90014 3.09121,9.13857 2.22293,4.2537 6.11116,8.33889 12.43573,13.06566 l 5.34316,3.99329 4.65564,-1.2781 c 17.3179,-4.75424 19.14456,-4.99104 36.29526,-4.7053 13.50141,0.22494 13.78859,0.26831 19.78664,2.98795 4.94833,2.24368 10.01543,5.93601 14.95353,10.89644 5.21911,5.2427 7.8027,8.8049 10.38927,14.32449 2.30808,4.92533 2.90724,7.83054 2.53513,12.29251 -0.84641,10.14912 -6.69424,21.56436 -13.80215,26.94242 -5.2924,4.00438 -9.3072,5.19568 -18.73244,5.55838 -4.06706,0.15651 -7.9921,0.0519 -10.03118,-0.26742 -3.22721,-0.50535 -9.08491,-2.52205 -9.56046,-3.2915 -0.12677,-0.20512 0.12208,-5.37352 0.553,-11.48534 l 0.78349,-11.1124 -3.65919,-3.71081 c -4.39703,-4.45907 -9.68702,-8.68755 -14.95929,-11.95752 -4.18854,-2.5978 -19.13896,-10.10284 -20.1254,-10.10284 -0.84062,0 -0.75807,0.53561 0.5322,3.45315 2.78713,6.30219 10.44632,18.10783 16.14479,24.88508 6.66926,7.93183 9.03804,14.98585 6.57619,19.58334 -2.03974,3.80922 -6.46988,6.35832 -17.86199,10.27779 -6.34381,2.1826 -14.74023,4.29823 -18.20098,4.58608 -1.52059,0.12647 -4.1125,0.0688 -5.75981,-0.12821 z"
       id="path11"
       transform="matrix(7.5,0,0,-7.5,0,5640)" />
    <path
       style="fill:#ffffff;fill-opacity:1;stroke-width:25.1021;stroke-linecap:round;stroke-linejoin:bevel"
       d="m 368.83244,633.81637 c -6.57797,-3.51141 -15.32226,-11.02685 -24.51333,-21.06842 -13.48646,-14.73444 -13.60856,-14.00422 2.51582,-15.04669 7.55323,-0.48832 18.81828,-1.76584 25.03345,-2.83891 12.37029,-2.13579 51.76559,-12.0251 65.68313,-16.4883 4.82212,-1.5464 9.17255,-2.40658 9.66761,-1.91152 0.49506,0.49505 1.15959,4.02915 1.47674,7.85354 0.70878,8.54693 -1.05239,12.27694 -10.7345,22.73477 -3.92493,4.2394 -7.70982,9.21662 -8.41086,11.06049 l -1.27461,3.3525 -4.61841,-2.3546 c -2.54012,-1.29502 -6.6982,-4.18068 -9.24018,-6.41256 -4.99321,-4.3841 -8.47205,-4.92342 -16.91237,-2.6219 -6.86454,1.87184 -18.13012,13.29378 -20.31961,20.60165 -1.76106,5.87789 -2.61942,6.20056 -8.35288,3.13995 z"
       id="path12"
       transform="matrix(7.5,0,0,-7.5,0,5640)" />
    <path
       style="fill:#a6d3c3;fill-opacity:1;stroke-width:17.7498;stroke-linecap:round;stroke-linejoin:bevel"
       d="m 182.73254,393.7402 c -7.53784,-19.96128 -12.85112,-44.29903 -13.03947,-59.72797 l -0.12444,-10.19364 3.88316,-7.77694 c 2.13574,-4.27732 5.45339,-9.82081 7.37255,-12.31887 4.44269,-5.7828 14.4449,-13.45786 23.25512,-17.8445 6.46154,-3.21723 7.37429,-3.4175 15.57565,-3.4175 h 8.71189 l 3.17697,9.21569 c 3.02135,8.76423 3.21455,10.09603 3.94384,27.18628 0.85352,20.00183 1.86021,29.62548 4.69932,44.92418 2.04905,11.04145 1.90358,13.13464 -0.91283,13.13464 -0.97556,0 -6.64971,1.23144 -12.60921,2.73653 -14.58519,3.68354 -24.42839,8.66298 -33.06077,16.72468 -3.73545,3.48849 -6.9463,6.34271 -7.13522,6.34271 -0.18893,0 -1.87038,-4.04338 -3.73656,-8.98529 z"
       id="path13"
       transform="matrix(7.5,0,0,-7.5,0,5640)" />
    <path
       style="fill:none;stroke:#531914;stroke-width:73.5;stroke-linecap:butt;stroke-linejoin:miter;stroke-dasharray:none;stroke-opacity:1"
       d="M 2088.8192,2008.1404 2232.4839,1682.285 Z"
       id="path14"
       sodipodi:nodetypes="ccc" />
    <path
       style="fill:none;stroke:#531914;stroke-width:56.49999998;stroke-linecap:butt;stroke-linejoin:miter;stroke-opacity:1;stroke-dasharray:none"
       d="m 2226.6314,1712.8859 50.1421,-101.4619 z"
       id="path15" />
    <path
       style="fill:#a6d3c3;fill-opacity:1;stroke-width:6.94248;stroke-linecap:round;stroke-linejoin:bevel;stroke-dasharray:none"
       d="m 333.35171,576.28304 c -3.69301,-1.30673 -3.91438,-1.57904 -3.49928,-4.30469 0.24372,-1.60035 0.68974,-6.88102 0.99116,-11.73483 l 0.54802,-8.8251 -7.186,-6.23595 c -3.9523,-3.42978 -9.76068,-7.72734 -12.90751,-9.55014 l -5.72151,-3.31419 -4.70184,-10.55239 c -2.58601,-5.80381 -4.36574,-10.8542 -3.95496,-11.22308 0.41078,-0.36889 4.27188,-1.65243 8.58021,-2.85233 6.96613,-1.94011 9.77375,-2.1832 25.36078,-2.19579 l 17.52745,-0.0142 6.43334,3.14356 c 8.94928,4.37295 20.22769,15.66759 24.37788,24.41296 2.7203,5.73231 2.97236,6.96097 2.55227,12.44118 -1.10315,14.39082 -10.74037,28.34584 -21.67205,31.38184 -5.17138,1.43622 -22.06938,1.0715 -26.72796,-0.57689 z"
       id="path16"
       transform="matrix(7.5,0,0,-7.5,0,5640)" />
    <path
       style="fill:#a6d3c3;fill-opacity:1;stroke-width:6.94248;stroke-linecap:round;stroke-linejoin:bevel;stroke-dasharray:none"
       d="m 368.06009,633.43894 c -5.63347,-2.78561 -8.78863,-5.37097 -18.3248,-15.01545 -6.33578,-6.40776 -12.84154,-13.53045 -14.45725,-15.82822 l -2.93764,-4.17775 15.44568,-1.07384 c 8.49513,-0.59062 19.14795,-1.71335 23.67294,-2.49496 14.25006,-2.46144 64.32879,-15.49464 74.23088,-19.3189 1.97774,-0.76381 2.68334,1.21311 3.30964,9.27268 0.64862,8.34691 -0.54732,10.94258 -9.63843,20.91924 -7.99408,8.77277 -10.36267,12.26073 -10.36747,15.26704 l -0.003,2.15546 -2.83542,-2.38585 c -1.55947,-1.31221 -3.40152,-2.38584 -4.09343,-2.38584 -0.69191,0 -3.66671,-2.11674 -6.61066,-4.70387 l -5.35265,-4.70387 -6.08196,0.42385 c -10.39495,0.7244 -18.27046,6.34173 -24.86986,17.73879 -1.46748,2.53431 -2.67203,5.74829 -2.67679,7.14216 -0.005,1.39387 -0.36763,2.53431 -0.8064,2.53431 -0.43876,0 -3.86008,-1.51424 -7.60294,-3.36498 z"
       id="path17"
       transform="matrix(7.5,0,0,-7.5,0,5640)" />
    <path
       style="fill:none;stroke:#531914;stroke-width:85;stroke-linecap:butt;stroke-linejoin:miter;stroke-dasharray:none;stroke-opacity:1"
       d="m 4261.5832,803.48715 c 0,0 -225.6282,-337.76295 -851.3052,-498.52193 -625.677,-160.7589 -1475.1327,143.14313 -1373.5462,244.25625 101.5865,101.11313 382.2608,700.19663 382.2608,700.19663 l 1049.3359,246.358 203.7617,101.6469 312.1673,-131.2096 z"
       id="path18" />
    <path
       style="fill:#531914;fill-opacity:1;stroke:none;stroke-width:8.99069px;stroke-linecap:butt;stroke-linejoin:miter;stroke-opacity:1"
       d="m 3226.1849,481.82203 c 0,0 -44.5846,21.559 -63.5882,-16.68018 -19.0035,-38.23918 -0.4515,-74.44661 -0.4515,-74.44661 0,0 7.0834,-40.82619 41.0293,-41.97223 33.9459,-1.14604 76.7649,24.27365 69.01,56.00868 -7.7548,31.73503 -28.7614,62.5501 -28.7614,62.5501 z"
       id="path20"
       sodipodi:nodetypes="cscsscc" />
    <path
       style="fill:#e93c56;stroke:none;stroke-width:7.5px;stroke-linecap:butt;stroke-linejoin:miter;stroke-opacity:1;fill-opacity:1"
       d="m 1731.5674,3913.6712 c 0,0 -109.7135,-4.5802 -151.1336,101.2745 -41.4203,105.8548 -1217.40057,-1119.1345 -770.07462,-2337.3386 89.9088,268.9632 156.43964,444.9322 456.83362,544.646 -32.8598,336.1501 -498.17197,1404.917 430.5005,1409.3948 19.5474,168.0154 33.8741,282.0233 33.8741,282.0233 z"
       id="path21" />
    <path
       style="fill:#e93c56;fill-opacity:1;stroke:none;stroke-width:7.5px;stroke-linecap:butt;stroke-linejoin:miter;stroke-opacity:1"
       d="m 4405.3456,3567.2833 -224.7429,-605.4974 c 0,0 179.8881,-1126.5178 -462.9167,-1396.8791 366.7017,-261.422 344.0682,-219.9689 542.1868,-697.84665 275.5127,124.15758 1123.081,1446.77375 145.4728,2700.22315 z"
       id="path22"
       sodipodi:nodetypes="ccccc" />
    <path
       style="fill:#ffffff;fill-opacity:1;stroke:none;stroke-width:10.4444;stroke-linecap:round;stroke-linejoin:bevel;stroke-dasharray:none;stroke-opacity:1"
       d="m 383.83333,710.91344 c -1.77402,-0.20543 -7.73893,-0.80952 -13.25537,-1.34242 -27.92516,-2.69767 -64.07366,-11.90697 -82.12698,-20.92294 -2.53431,-1.26564 -4.77088,-2.44889 -4.97015,-2.62943 -0.19927,-0.18053 2.18107,-3.61599 5.28964,-7.63435 10.17957,-13.15883 18.59423,-28.15791 29.20605,-52.05958 l 4.44795,-10.01841 8.72298,9.38356 c 17.15635,18.45559 35.92749,30.46699 47.61313,30.46699 4.60342,0 4.05642,0.48677 11.67237,-10.38717 7.65966,-10.93634 11.68866,-14.49518 16.41018,-14.49518 4.61436,0 9.39599,3.93086 10.9039,8.96382 1.24902,4.16885 6.6444,10.38912 9.01138,10.38912 3.29667,0 11.16486,-9.60458 16.37363,-19.98704 6.80326,-13.56069 7.35367,-14.14685 14.49233,-15.43387 l 5.92465,-1.06814 0.49161,-9.17214 c 0.33795,-6.30513 1.01154,-10.14327 2.15499,-12.27899 1.5905,-2.97076 1.59497,-3.58648 0.10184,-14.05621 -0.85884,-6.02215 -1.33345,-11.54372 -1.05469,-12.27015 0.27876,-0.72643 2.70175,-2.79893 5.38443,-4.60555 5.63272,-3.79329 9.46561,-4.17164 18.59272,-1.83533 12.96694,3.31923 28.8652,13.6123 35.96612,23.28567 3.17914,4.33087 16.30518,31.12578 22.19314,45.3041 9.74684,23.4706 9.04847,21.22205 7.22249,23.25413 -3.78632,4.21369 -18.89772,16.21481 -27.9252,22.17754 -11.51427,7.60529 -33.28677,18.38561 -47.68717,23.61156 -13.20082,4.79064 -32.06336,9.70956 -44.46969,11.59669 -9.17906,1.39623 -43.53566,2.59173 -50.68628,1.76372 z m 48.37916,-6.31349 c 5.03192,-2.10248 5.45802,-7.0781 1.15318,-13.46606 -6.35571,-9.43123 -15.52436,-3.11547 -12.11988,8.34869 1.90135,6.4025 4.7309,7.72285 10.9667,5.11737 z m -9.78279,-31.0332 c 3.61553,-1.26037 5.63893,-4.95972 5.63893,-10.30952 0,-5.48106 -2.14975,-7.3324 -9.09788,-7.83498 l -5.34255,-0.38645 -1.63947,3.45494 c -2.23985,4.72015 -1.56644,12.0904 1.31813,14.42617 2.37024,1.9193 4.95342,2.10331 9.12284,0.64984 z"
       id="path23"
       transform="matrix(7.5,0,0,-7.5,0,5640)" />
    <path
       style="fill:#ffffff;fill-opacity:1;stroke:none;stroke-width:5.22222;stroke-linecap:round;stroke-linejoin:bevel;stroke-dasharray:none;stroke-opacity:1"
       d="m 425.07353,496.98827 c -5.97874,-1.26418 -11.08436,-3.58494 -19.35294,-8.79689 -2.91446,-1.83708 -6.64682,-4.01305 -8.29412,-4.83549 -4.57262,-2.28296 -11.73563,-7.15522 -15.85487,-10.78446 -5.44696,-4.79903 -12.30652,-11.42638 -12.07075,-11.66215 0.11277,-0.11277 3.90209,1.04591 8.42072,2.57485 14.98485,5.07031 23.93515,6.48806 43.23529,6.84858 19.13256,0.35739 39.73654,-0.98291 54.19145,-3.52519 4.02779,-0.70839 7.32326,-1.13286 7.32326,-0.94326 0,0.94991 -15.59092,14.8336 -22.425,19.96942 -6.60731,4.96541 -14.32102,9.02856 -20.19773,10.63904 -3.82095,1.04711 -11.25158,1.30292 -14.97531,0.51555 z"
       id="path24"
       transform="matrix(7.5,0,0,-7.5,0,5640)" />
  </g>
</svg>
